<?xml version="1.0" encoding="utf-8"?>
<!-- Generator: Adobe Illustrator 25.4.2, SVG Export Plug-In . SVG Version: 6.00 Build 0)  -->
<svg version="1.1" id="Capa_1" xmlns="http://www.w3.org/2000/svg" xmlns:xlink="http://www.w3.org/1999/xlink" x="0px" y="0px"
	 viewBox="0 0 8192 1486.2" style="enable-background:new 0 0 8192 1486.2;" xml:space="preserve">
<style type="text/css">
	.st0{clip-path:url(#SVGID_00000066516851519520862950000016397272655768058790_);}
	.st1{fill:#BC6285;}
	.st2{fill:#A093A1;}
	.st3{fill:#FFFFFF;}
</style>
<g>
	<g>
		<g>
			<g>
				<g>
					<g>
						<defs>
							<rect id="SVGID_1_" width="8192" height="1486.2"/>
						</defs>
						<clipPath id="SVGID_00000176003818056747023010000010169078791405740187_">
							<use xlink:href="#SVGID_1_"  style="overflow:visible;"/>
						</clipPath>
						<g style="clip-path:url(#SVGID_00000176003818056747023010000010169078791405740187_);">
							<path class="st1" d="M5697.5,1507.6v-353.1c-1359.7,224.6-1738.1-461.1-3204.2-756.7s-2885,496.6-2885,496.6l32.5,613.2
								L5697.5,1507.6L5697.5,1507.6z"/>
							<path class="st2" d="M8420.8,1429.3V695.5C7289.3-561.8,4507.7,334,2480.4,711.2s-2828.8-78.6-2828.8-78.6l-38,796.7H8420.8z
								"/>
							<path class="st3" d="M9480.3,1507.6c-3.7-129-6.6-214.9-6.6-214.9c-1461.5-1713-4038.8-377.2-6710.4,31.4
								S-757,679.7-757,679.7l-58.7,827.8L9480.3,1507.6L9480.3,1507.6z"/>
						</g>
					</g>
				</g>
			</g>
		</g>
	</g>
</g>
</svg>
