<?xml version="1.0" encoding="utf-8"?>
<!-- Generator: Adobe Illustrator 24.0.1, SVG Export Plug-In . SVG Version: 6.00 Build 0)  -->
<svg version="1.1" id="Capa_1" xmlns="http://www.w3.org/2000/svg" xmlns:xlink="http://www.w3.org/1999/xlink" x="0px" y="0px"
	 viewBox="0 0 8192 1269.3" style="enable-background:new 0 0 8192 1269.3;" xml:space="preserve">
<style type="text/css">
	.st0{fill:#AFBFAC;}
	.st1{fill:#E8DBD1;}
	.st2{fill:url(#SVGID_1_);}
	.st3{fill:none;stroke:#CF796E;stroke-width:8.5176;stroke-linecap:round;stroke-miterlimit:10;stroke-dasharray:8.5176,29.8116;}
</style>
<g>
	<g>
		<g>
			<path class="st0" d="M0.9,781.5V301.6c130.3-50.5,1631.7-539,4177.9-116.8c0,0,2442.4,245.9,4013.2-170.9v1156.9
				c-420.5-52.4-853.4-269.4-1170.5-368.6c-1455.3-455.3-3115.3-388.6-4558.6,55.2C1343.5,1201.7,974.7,1137.4,0.9,781.5z"/>
		</g>
		<path class="st1" d="M0.9,789V351.8c316.8,116.4,2022.2,297.7,3607.7-92.7C6129.8-361.8,6743,925.3,8191.5,720.9v483.7
			l-488.4-89.3l-795.3-258.9l-831.7-264.3l-748.3-115.8l-795.3,11.3L3700,553.8l-421,106.6l-546.1,171.8L2191.6,1048l-323.4,28.9
			l-288.6,75.8l-488.5-38l-224.3-37.9L390.2,948.1L0.9,789z"/>
		
			<linearGradient id="SVGID_1_" gradientUnits="userSpaceOnUse" x1="14076.0547" y1="836.6926" x2="22266.7559" y2="836.6926" gradientTransform="matrix(-1 0 0 1 22267.6563 -12.6897)">
			<stop  offset="0" style="stop-color:#955A1E"/>
			<stop  offset="1" style="stop-color:#EFC982"/>
		</linearGradient>
		<path class="st2" d="M0.9,738c521.1,217,1312.2,550.8,2629.6,62.4c1456.7-540,2932.8-547.1,4385.6,48.9
			c318.2,130.6,753.5,253.1,1175.5,321.5v78.5c-461.3-60.5-962.2-199.5-1315.5-348.8c-1415.8-598.2-3010-458.7-4431.8,65.1
			C1120,1453.5,519.6,1054.1,0.9,826.9V738z"/>
	</g>
	<path class="st3" d="M8182.7,464c0,0-1826.4,777.5-3699.7,299.8c0,0-3050.5-695.7-4471.2-294.4"/>
</g>
</svg>
